<mxfile host="app.diagrams.net" agent="Mozilla/5.0 (Macintosh; Intel Mac OS X 10_15_7) AppleWebKit/605.1.15 (KHTML, like Gecko) Version/18.5 Safari/605.1.15" version="26.2.12">
  <diagram name="Seite-1" id="zAzjbxygs4-kPelFN3mp">
    <mxGraphModel dx="1218" dy="821" grid="1" gridSize="10" guides="1" tooltips="1" connect="1" arrows="1" fold="1" page="1" pageScale="1" pageWidth="827" pageHeight="1169" math="0" shadow="0">
      <root>
        <mxCell id="0" />
        <mxCell id="1" parent="0" />
        <mxCell id="7P69qqmj-2dz770Gpz7b-1" value=":User" style="rounded=0;whiteSpace=wrap;html=1;" parent="1" vertex="1">
          <mxGeometry x="80" y="180" width="120" height="60" as="geometry" />
        </mxCell>
        <mxCell id="7P69qqmj-2dz770Gpz7b-2" value=":UI" style="rounded=0;whiteSpace=wrap;html=1;" parent="1" vertex="1">
          <mxGeometry x="240" y="180" width="120" height="60" as="geometry" />
        </mxCell>
        <mxCell id="iH0Yo2gnbCKK6kwk9RAm-1" value="&lt;div&gt;:Nutrition-Analysis-Module&lt;/div&gt;" style="rounded=0;whiteSpace=wrap;html=1;" parent="1" vertex="1">
          <mxGeometry x="400" y="180" width="120" height="60" as="geometry" />
        </mxCell>
        <mxCell id="iH0Yo2gnbCKK6kwk9RAm-2" value=":Local database" style="rounded=0;whiteSpace=wrap;html=1;" parent="1" vertex="1">
          <mxGeometry x="560" y="180" width="120" height="60" as="geometry" />
        </mxCell>
        <mxCell id="iH0Yo2gnbCKK6kwk9RAm-3" value="" style="endArrow=none;dashed=1;html=1;rounded=0;" parent="1" source="bZMJBvDjggYpOaSIYlc6-1" edge="1">
          <mxGeometry width="50" height="50" relative="1" as="geometry">
            <mxPoint x="140" y="290" as="sourcePoint" />
            <mxPoint x="140" y="600" as="targetPoint" />
          </mxGeometry>
        </mxCell>
        <mxCell id="iH0Yo2gnbCKK6kwk9RAm-4" value="" style="endArrow=none;dashed=1;html=1;rounded=0;" parent="1" edge="1">
          <mxGeometry width="50" height="50" relative="1" as="geometry">
            <mxPoint x="300" y="540" as="sourcePoint" />
            <mxPoint x="300" y="600" as="targetPoint" />
          </mxGeometry>
        </mxCell>
        <mxCell id="iH0Yo2gnbCKK6kwk9RAm-5" value="" style="endArrow=classic;html=1;rounded=0;" parent="1" edge="1">
          <mxGeometry relative="1" as="geometry">
            <mxPoint x="140" y="290" as="sourcePoint" />
            <mxPoint x="300" y="290" as="targetPoint" />
          </mxGeometry>
        </mxCell>
        <mxCell id="iH0Yo2gnbCKK6kwk9RAm-6" value="&lt;div&gt;Enters food information&lt;/div&gt;" style="edgeLabel;resizable=0;html=1;;align=center;verticalAlign=middle;" parent="iH0Yo2gnbCKK6kwk9RAm-5" connectable="0" vertex="1">
          <mxGeometry relative="1" as="geometry" />
        </mxCell>
        <mxCell id="iH0Yo2gnbCKK6kwk9RAm-8" value="" style="endArrow=none;dashed=1;html=1;rounded=0;" parent="1" source="7P69qqmj-2dz770Gpz7b-2" target="iH0Yo2gnbCKK6kwk9RAm-7" edge="1">
          <mxGeometry width="50" height="50" relative="1" as="geometry">
            <mxPoint x="300" y="240" as="sourcePoint" />
            <mxPoint x="300" y="640" as="targetPoint" />
          </mxGeometry>
        </mxCell>
        <mxCell id="iH0Yo2gnbCKK6kwk9RAm-7" value="" style="rounded=1;whiteSpace=wrap;html=1;" parent="1" vertex="1">
          <mxGeometry x="295" y="290" width="10" height="100" as="geometry" />
        </mxCell>
        <mxCell id="iH0Yo2gnbCKK6kwk9RAm-9" value="" style="endArrow=none;dashed=1;html=1;rounded=0;" parent="1" edge="1">
          <mxGeometry width="50" height="50" relative="1" as="geometry">
            <mxPoint x="460" y="490" as="sourcePoint" />
            <mxPoint x="460" y="600" as="targetPoint" />
          </mxGeometry>
        </mxCell>
        <mxCell id="iH0Yo2gnbCKK6kwk9RAm-10" value="" style="endArrow=none;dashed=1;html=1;rounded=0;" parent="1" source="iH0Yo2gnbCKK6kwk9RAm-18" edge="1">
          <mxGeometry width="50" height="50" relative="1" as="geometry">
            <mxPoint x="619.5" y="240" as="sourcePoint" />
            <mxPoint x="620" y="600" as="targetPoint" />
          </mxGeometry>
        </mxCell>
        <mxCell id="iH0Yo2gnbCKK6kwk9RAm-12" value="" style="endArrow=classic;html=1;rounded=0;" parent="1" edge="1">
          <mxGeometry relative="1" as="geometry">
            <mxPoint x="305" y="339" as="sourcePoint" />
            <mxPoint x="460" y="340" as="targetPoint" />
          </mxGeometry>
        </mxCell>
        <mxCell id="iH0Yo2gnbCKK6kwk9RAm-13" value="&lt;div&gt;Transmits input&lt;/div&gt;" style="edgeLabel;resizable=0;html=1;;align=center;verticalAlign=middle;" parent="iH0Yo2gnbCKK6kwk9RAm-12" connectable="0" vertex="1">
          <mxGeometry relative="1" as="geometry" />
        </mxCell>
        <mxCell id="iH0Yo2gnbCKK6kwk9RAm-15" value="" style="endArrow=none;dashed=1;html=1;rounded=0;" parent="1" target="iH0Yo2gnbCKK6kwk9RAm-14" edge="1">
          <mxGeometry width="50" height="50" relative="1" as="geometry">
            <mxPoint x="459.5" y="240" as="sourcePoint" />
            <mxPoint x="459.5" y="650" as="targetPoint" />
          </mxGeometry>
        </mxCell>
        <mxCell id="iH0Yo2gnbCKK6kwk9RAm-14" value="" style="rounded=1;whiteSpace=wrap;html=1;" parent="1" vertex="1">
          <mxGeometry x="455" y="340" width="10" height="50" as="geometry" />
        </mxCell>
        <mxCell id="iH0Yo2gnbCKK6kwk9RAm-16" value="" style="endArrow=classic;html=1;rounded=0;" parent="1" edge="1">
          <mxGeometry relative="1" as="geometry">
            <mxPoint x="465" y="390" as="sourcePoint" />
            <mxPoint x="620" y="391" as="targetPoint" />
          </mxGeometry>
        </mxCell>
        <mxCell id="iH0Yo2gnbCKK6kwk9RAm-17" value="&lt;div&gt;S&lt;span style=&quot;white-space-collapse: preserve;&quot;&gt;aves the given&lt;/span&gt;&lt;/div&gt;&lt;div&gt;&lt;span style=&quot;white-space-collapse: preserve;&quot;&gt;information&lt;/span&gt;&lt;/div&gt;" style="edgeLabel;resizable=0;html=1;;align=center;verticalAlign=middle;" parent="iH0Yo2gnbCKK6kwk9RAm-16" connectable="0" vertex="1">
          <mxGeometry relative="1" as="geometry" />
        </mxCell>
        <mxCell id="iH0Yo2gnbCKK6kwk9RAm-19" value="" style="endArrow=none;dashed=1;html=1;rounded=0;" parent="1" target="iH0Yo2gnbCKK6kwk9RAm-18" edge="1">
          <mxGeometry width="50" height="50" relative="1" as="geometry">
            <mxPoint x="619.5" y="240" as="sourcePoint" />
            <mxPoint x="619.5" y="650" as="targetPoint" />
          </mxGeometry>
        </mxCell>
        <mxCell id="iH0Yo2gnbCKK6kwk9RAm-18" value="" style="rounded=1;whiteSpace=wrap;html=1;" parent="1" vertex="1">
          <mxGeometry x="615" y="390" width="10" height="50" as="geometry" />
        </mxCell>
        <mxCell id="iH0Yo2gnbCKK6kwk9RAm-20" value="" style="endArrow=classic;html=1;rounded=0;dashed=1;entryX=1;entryY=0;entryDx=0;entryDy=0;" parent="1" target="aFDrCXv2C5fKLosLNs23-2" edge="1">
          <mxGeometry relative="1" as="geometry">
            <mxPoint x="615" y="440" as="sourcePoint" />
            <mxPoint x="480" y="438" as="targetPoint" />
          </mxGeometry>
        </mxCell>
        <mxCell id="iH0Yo2gnbCKK6kwk9RAm-24" value="" style="endArrow=classic;html=1;rounded=0;" parent="1" edge="1">
          <mxGeometry relative="1" as="geometry">
            <mxPoint x="455" y="490" as="sourcePoint" />
            <mxPoint x="300" y="490" as="targetPoint" />
          </mxGeometry>
        </mxCell>
        <mxCell id="iH0Yo2gnbCKK6kwk9RAm-25" value="&lt;div&gt;Sends nutrition values&lt;/div&gt;" style="edgeLabel;resizable=0;html=1;;align=center;verticalAlign=middle;" parent="iH0Yo2gnbCKK6kwk9RAm-24" connectable="0" vertex="1">
          <mxGeometry relative="1" as="geometry" />
        </mxCell>
        <mxCell id="iH0Yo2gnbCKK6kwk9RAm-29" value="" style="endArrow=classic;html=1;rounded=0;" parent="1" edge="1">
          <mxGeometry relative="1" as="geometry">
            <mxPoint x="295" y="540" as="sourcePoint" />
            <mxPoint x="140" y="540" as="targetPoint" />
          </mxGeometry>
        </mxCell>
        <mxCell id="iH0Yo2gnbCKK6kwk9RAm-30" value="&lt;div&gt;Shows the updated&lt;/div&gt;&lt;div&gt;information to user&lt;/div&gt;" style="edgeLabel;resizable=0;html=1;;align=center;verticalAlign=middle;" parent="iH0Yo2gnbCKK6kwk9RAm-29" connectable="0" vertex="1">
          <mxGeometry relative="1" as="geometry" />
        </mxCell>
        <mxCell id="bZMJBvDjggYpOaSIYlc6-2" value="" style="endArrow=none;dashed=1;html=1;rounded=0;" parent="1" source="7P69qqmj-2dz770Gpz7b-1" target="bZMJBvDjggYpOaSIYlc6-1" edge="1">
          <mxGeometry width="50" height="50" relative="1" as="geometry">
            <mxPoint x="140" y="240" as="sourcePoint" />
            <mxPoint x="140" y="600" as="targetPoint" />
          </mxGeometry>
        </mxCell>
        <mxCell id="bZMJBvDjggYpOaSIYlc6-1" value="" style="rounded=1;whiteSpace=wrap;html=1;" parent="1" vertex="1">
          <mxGeometry x="135" y="290" width="10" height="250" as="geometry" />
        </mxCell>
        <mxCell id="aFDrCXv2C5fKLosLNs23-1" value="sd addMeal" style="shape=umlFrame;whiteSpace=wrap;html=1;pointerEvents=0;" vertex="1" parent="1">
          <mxGeometry x="40" y="120" width="670" height="480" as="geometry" />
        </mxCell>
        <mxCell id="aFDrCXv2C5fKLosLNs23-2" value="" style="rounded=1;whiteSpace=wrap;html=1;" vertex="1" parent="1">
          <mxGeometry x="455" y="440" width="10" height="70" as="geometry" />
        </mxCell>
        <mxCell id="aFDrCXv2C5fKLosLNs23-3" value="" style="endArrow=none;dashed=1;html=1;rounded=0;" edge="1" parent="1">
          <mxGeometry width="50" height="50" relative="1" as="geometry">
            <mxPoint x="460" y="390" as="sourcePoint" />
            <mxPoint x="460" y="440" as="targetPoint" />
          </mxGeometry>
        </mxCell>
        <mxCell id="aFDrCXv2C5fKLosLNs23-4" value="" style="endArrow=classic;html=1;rounded=0;dashed=1;entryX=1;entryY=0;entryDx=0;entryDy=0;" edge="1" parent="1">
          <mxGeometry relative="1" as="geometry">
            <mxPoint x="455" y="510" as="sourcePoint" />
            <mxPoint x="305" y="510" as="targetPoint" />
          </mxGeometry>
        </mxCell>
        <mxCell id="aFDrCXv2C5fKLosLNs23-5" value="" style="endArrow=classic;html=1;rounded=0;dashed=1;entryX=1;entryY=0;entryDx=0;entryDy=0;" edge="1" parent="1">
          <mxGeometry relative="1" as="geometry">
            <mxPoint x="455" y="389" as="sourcePoint" />
            <mxPoint x="305" y="389" as="targetPoint" />
          </mxGeometry>
        </mxCell>
        <mxCell id="aFDrCXv2C5fKLosLNs23-6" value="" style="endArrow=none;dashed=1;html=1;rounded=0;exitX=0.5;exitY=1;exitDx=0;exitDy=0;entryX=0.5;entryY=0;entryDx=0;entryDy=0;" edge="1" parent="1" source="iH0Yo2gnbCKK6kwk9RAm-7" target="aFDrCXv2C5fKLosLNs23-7">
          <mxGeometry width="50" height="50" relative="1" as="geometry">
            <mxPoint x="299.5" y="400" as="sourcePoint" />
            <mxPoint x="299.5" y="450" as="targetPoint" />
          </mxGeometry>
        </mxCell>
        <mxCell id="aFDrCXv2C5fKLosLNs23-7" value="" style="rounded=1;whiteSpace=wrap;html=1;" vertex="1" parent="1">
          <mxGeometry x="295" y="490" width="10" height="50" as="geometry" />
        </mxCell>
        <mxCell id="aFDrCXv2C5fKLosLNs23-8" value="" style="endArrow=classic;html=1;rounded=0;exitX=0.003;exitY=0.356;exitDx=0;exitDy=0;exitPerimeter=0;" edge="1" parent="1" source="aFDrCXv2C5fKLosLNs23-1">
          <mxGeometry relative="1" as="geometry">
            <mxPoint x="50" y="290" as="sourcePoint" />
            <mxPoint x="130" y="290" as="targetPoint" />
          </mxGeometry>
        </mxCell>
      </root>
    </mxGraphModel>
  </diagram>
</mxfile>
